<svg width="49" height="16" viewBox="0 0 49 16" fill="none" xmlns="http://www.w3.org/2000/svg">
<path d="M32.4174 7.02239C32.0269 7.41291 32.0269 8.04607 32.4174 8.4366L38.7814 14.8006C39.1719 15.1911 39.8051 15.1911 40.1956 14.8006C40.5861 14.41 40.5861 13.7769 40.1956 13.3863L34.5388 7.72949L40.1956 2.07264C40.5861 1.68211 40.5861 1.04895 40.1956 0.658424C39.8051 0.2679 39.1719 0.2679 38.7814 0.658424L32.4174 7.02239ZM48.209 6.72949L33.1246 6.72949V8.72949L48.209 8.72949V6.72949Z" fill="#030233"/>
<path d="M16.2334 7.02239C16.624 7.41291 16.624 8.04607 16.2334 8.4366L9.86947 14.8006C9.47894 15.1911 8.84578 15.1911 8.45526 14.8006C8.06473 14.41 8.06473 13.7769 8.45526 13.3863L14.1121 7.72949L8.45526 2.07264C8.06473 1.68211 8.06473 1.04895 8.45526 0.658424C8.84578 0.2679 9.47894 0.2679 9.86947 0.658424L16.2334 7.02239ZM0.441895 6.72949L15.5263 6.72949V8.72949L0.441895 8.72949L0.441895 6.72949Z" fill="#030233"/>
<path d="M24.3258 1.84473L25.2564 6.24541L28.9045 3.45074L26.6821 7.39831L31.3408 7.5173L27.0053 9.16464L30.4947 12.1416L26.0747 10.7179L26.7621 15.1599L24.3258 11.3314L21.8896 15.1599L22.5769 10.7179L18.157 12.1416L21.6464 9.16464L17.3109 7.5173L21.9695 7.39831L19.7471 3.45074L23.3953 6.24541L24.3258 1.84473Z" fill="#030233"/>
</svg>
