<svg width="52" height="17" viewBox="0 0 52 17" fill="none" xmlns="http://www.w3.org/2000/svg">
<path d="M1.0666 8.72078C0.676071 8.33025 0.676071 7.69709 1.0666 7.30657L7.43056 0.942604C7.82108 0.55208 8.45425 0.55208 8.84477 0.942604C9.23529 1.33313 9.23529 1.96629 8.84477 2.35682L3.18792 8.01367L8.84477 13.6705C9.23529 14.0611 9.23529 14.6942 8.84477 15.0847C8.45425 15.4753 7.82108 15.4753 7.43056 15.0847L1.0666 8.72078ZM18.5342 9.01367L1.7737 9.01367V7.01367L18.5342 7.01367V9.01367Z" fill="#030233"/>
<path d="M51.0867 8.72078C51.4772 8.33025 51.4772 7.69709 51.0867 7.30657L44.7228 0.942604C44.3322 0.55208 43.6991 0.55208 43.3085 0.942604C42.918 1.33313 42.918 1.96629 43.3085 2.35682L48.9654 8.01367L43.3085 13.6705C42.918 14.0611 42.918 14.6942 43.3085 15.0847C43.6991 15.4753 44.3322 15.4753 44.7228 15.0847L51.0867 8.72078ZM33.6191 9.01367L50.3796 9.01367V7.01367L33.6191 7.01367V9.01367Z" fill="#030233"/>
<path d="M26.0764 16.8398L27.0617 12.1248L30.9244 15.1191L28.5713 10.8896L33.504 10.7621L28.9135 8.99708L32.6081 5.80745L27.9282 7.33284L28.656 2.57354L26.0764 6.67558L23.4968 2.57354L24.2246 7.33284L19.5446 5.80745L23.2393 8.99708L18.6488 10.7621L23.5815 10.8896L21.2284 15.1191L25.0911 12.1248L26.0764 16.8398Z" fill="#030233"/>
</svg>
