<svg width="38" height="38" viewBox="0 0 38 38" fill="none" xmlns="http://www.w3.org/2000/svg">
<circle cx="19" cy="19" r="19" fill="white"/>
<path d="M21.3047 20.918H25.7188C25.7188 22.8971 25.1914 24.4922 24.1367 25.7031C22.7695 27.2786 21.0182 28.0664 18.8828 28.0664C17.0078 28.0664 15.4388 27.4154 14.1758 26.1133C12.8997 24.7982 12.2617 23.1901 12.2617 21.2891C12.2617 19.7786 12.6589 18.5677 13.4531 17.6562C14.2604 16.7318 15.6276 15.9245 17.5547 15.2344C19.4688 14.5312 20.6797 13.9648 21.1875 13.5352C21.7083 13.1055 21.9688 12.4414 21.9688 11.543C21.9688 10.6445 21.6953 9.9349 21.1484 9.41406C20.6146 8.88021 19.8984 8.61328 19 8.61328C18.1016 8.61328 17.3854 8.8737 16.8516 9.39453C16.3177 9.91536 16.0508 10.625 16.0508 11.5234C16.0508 11.9271 16.1289 12.487 16.2852 13.2031H11.7344C11.7083 12.8646 11.6823 12.5651 11.6562 12.3047C11.6432 12.0443 11.6367 11.8099 11.6367 11.6016C11.6367 9.54427 12.3333 7.83203 13.7266 6.46484C15.1068 5.09766 16.8516 4.41406 18.9609 4.41406C21.0833 4.41406 22.8542 5.10417 24.2734 6.48438C25.6927 7.86458 26.4023 9.58984 26.4023 11.6602C26.4023 13.7826 25.6927 15.4948 24.2734 16.7969C23.375 17.6172 21.6823 18.4115 19.1953 19.1797C17.5026 19.7005 16.6562 20.5208 16.6562 21.6406C16.6562 21.9531 16.7148 22.2526 16.832 22.5391C16.9622 22.8125 17.1315 23.0534 17.3398 23.2617C17.5482 23.4701 17.7891 23.6328 18.0625 23.75C18.349 23.8672 18.6484 23.9258 18.9609 23.9258C20.3932 23.9258 21.1745 22.9232 21.3047 20.918ZM16.3242 32.8125C16.3242 32.0833 16.5911 31.4518 17.125 30.918C17.6589 30.3841 18.2969 30.1172 19.0391 30.1172C19.7812 30.1172 20.4193 30.3841 20.9531 30.918C21.487 31.4518 21.7539 32.0898 21.7539 32.832C21.7539 33.5872 21.487 34.2318 20.9531 34.7656C20.4323 35.2865 19.8008 35.5469 19.0586 35.5469C18.2904 35.5469 17.6458 35.2865 17.125 34.7656C16.5911 34.2318 16.3242 33.5807 16.3242 32.8125Z" fill="#00042C"/>
</svg>
