<svg width="355" height="159" viewBox="0 0 355 159" fill="none" xmlns="http://www.w3.org/2000/svg">
<rect x="140.223" y="1.5" width="83.3022" height="28" fill="#AE3675" stroke="#AE3675"/>
<rect x="5.18359" y="64.5" width="83.3022" height="28" fill="#F1A025" stroke="#F1A025"/>
<rect x="138.662" y="64.5" width="83.3022" height="28" fill="#00A12C" stroke="#00A12C"/>
<rect x="266.676" y="64.5" width="83.3022" height="28" fill="#C2DB7A" stroke="#C2DB7A"/>
<path d="M81.4601 139C81.4601 144.285 77.9886 149.149 72.2095 152.717C66.4383 156.28 58.434 158.5 49.5662 158.5C40.6985 158.5 32.6942 156.28 26.923 152.717C21.1439 149.149 17.6724 144.285 17.6724 139C17.6724 133.715 21.1439 128.851 26.923 125.283C32.6942 121.72 40.6985 119.5 49.5662 119.5C58.434 119.5 66.4383 121.72 72.2095 125.283C77.9886 128.851 81.4601 133.715 81.4601 139Z" fill="#AC6F14" stroke="#AC6F14"/>
<path d="M211.817 139C211.817 144.285 208.345 149.149 202.566 152.717C196.795 156.28 188.79 158.5 179.923 158.5C171.055 158.5 163.051 156.28 157.279 152.717C151.5 149.149 148.029 144.285 148.029 139C148.029 133.715 151.5 128.851 157.279 125.283C163.051 121.72 171.055 119.5 179.923 119.5C188.79 119.5 196.795 121.72 202.566 125.283C208.345 128.851 211.817 133.715 211.817 139Z" fill="#05571C" stroke="#05571C"/>
<path d="M338.27 139C338.27 144.285 334.799 149.149 329.02 152.717C323.248 156.28 315.244 158.5 306.376 158.5C297.509 158.5 289.504 156.28 283.733 152.717C277.954 149.149 274.482 144.285 274.482 139C274.482 133.715 277.954 128.851 283.733 125.283C289.504 121.72 297.509 119.5 306.376 119.5C315.244 119.5 323.248 121.72 329.02 125.283C334.799 128.851 338.27 133.715 338.27 139Z" fill="#809448" stroke="#809448"/>
<path d="M147.276 12.7827L145.797 16.2041H148.755L147.276 12.7827ZM147.276 10.3389L151.504 20H150.304L149.098 17.1499H145.467L144.261 20H143.061L147.276 10.3389ZM156.804 17.1118C156.804 16.4601 156.626 15.9354 156.271 15.5376C155.915 15.1398 155.448 14.9409 154.868 14.9409C154.271 14.9409 153.806 15.125 153.472 15.4932C153.137 15.8613 152.97 16.3755 152.97 17.0356C152.97 17.7381 153.137 18.2798 153.472 18.6606C153.81 19.0415 154.288 19.2319 154.906 19.2319C155.499 19.2319 155.962 19.0457 156.296 18.6733C156.635 18.2967 156.804 17.7762 156.804 17.1118ZM157.769 14.1919V19.8984C157.769 20.529 157.727 20.9775 157.642 21.2441C157.557 21.5107 157.418 21.7498 157.223 21.9614C156.952 22.2534 156.62 22.4714 156.226 22.6152C155.837 22.7591 155.389 22.8311 154.881 22.8311C154.001 22.8311 153.313 22.63 152.818 22.228C152.327 21.826 152.071 21.2568 152.05 20.5205H153.167V20.5967C153.167 21.0326 153.317 21.369 153.618 21.606C153.918 21.8429 154.343 21.9614 154.893 21.9614C155.291 21.9614 155.63 21.8958 155.909 21.7646C156.193 21.6377 156.408 21.4473 156.557 21.1934C156.645 21.0495 156.709 20.8823 156.747 20.6919C156.785 20.5015 156.804 20.2285 156.804 19.873V19.416V18.8955C156.58 19.3102 156.286 19.6297 155.922 19.854C155.558 20.0741 155.149 20.1841 154.697 20.1841C153.863 20.1841 153.19 19.9006 152.678 19.3335C152.17 18.7664 151.916 18.0132 151.916 17.0737C151.916 16.1258 152.164 15.3747 152.659 14.8203C153.154 14.2617 153.816 13.9824 154.646 13.9824C155.128 13.9824 155.552 14.0924 155.915 14.3125C156.279 14.5283 156.567 14.8478 156.779 15.271V14.1919H157.769ZM164.231 17.1118C164.231 16.4601 164.053 15.9354 163.698 15.5376C163.342 15.1398 162.875 14.9409 162.295 14.9409C161.698 14.9409 161.233 15.125 160.898 15.4932C160.564 15.8613 160.397 16.3755 160.397 17.0356C160.397 17.7381 160.564 18.2798 160.898 18.6606C161.237 19.0415 161.715 19.2319 162.333 19.2319C162.925 19.2319 163.389 19.0457 163.723 18.6733C164.062 18.2967 164.231 17.7762 164.231 17.1118ZM165.196 14.1919V19.8984C165.196 20.529 165.153 20.9775 165.069 21.2441C164.984 21.5107 164.844 21.7498 164.65 21.9614C164.379 22.2534 164.047 22.4714 163.653 22.6152C163.264 22.7591 162.815 22.8311 162.308 22.8311C161.427 22.8311 160.74 22.63 160.245 22.228C159.754 21.826 159.498 21.2568 159.476 20.5205H160.594V20.5967C160.594 21.0326 160.744 21.369 161.044 21.606C161.345 21.8429 161.77 21.9614 162.32 21.9614C162.718 21.9614 163.057 21.8958 163.336 21.7646C163.619 21.6377 163.835 21.4473 163.983 21.1934C164.072 21.0495 164.136 20.8823 164.174 20.6919C164.212 20.5015 164.231 20.2285 164.231 19.873V19.416V18.8955C164.007 19.3102 163.712 19.6297 163.349 19.854C162.985 20.0741 162.576 20.1841 162.123 20.1841C161.29 20.1841 160.617 19.9006 160.105 19.3335C159.597 18.7664 159.343 18.0132 159.343 17.0737C159.343 16.1258 159.591 15.3747 160.086 14.8203C160.581 14.2617 161.243 13.9824 162.073 13.9824C162.555 13.9824 162.978 14.0924 163.342 14.3125C163.706 14.5283 163.994 14.8478 164.205 15.271V14.1919H165.196ZM167.265 20V10.1611H168.281V20H167.265ZM170.947 17.1118C170.947 17.7254 171.152 18.2459 171.562 18.6733C171.973 19.0965 172.47 19.3081 173.054 19.3081C173.634 19.3081 174.127 19.0965 174.533 18.6733C174.939 18.2459 175.142 17.7254 175.142 17.1118C175.142 16.4982 174.939 15.9798 174.533 15.5566C174.127 15.1292 173.634 14.9155 173.054 14.9155C172.466 14.9155 171.967 15.1292 171.556 15.5566C171.15 15.9798 170.947 16.4982 170.947 17.1118ZM169.893 17.1118C169.893 16.6844 169.971 16.2824 170.128 15.9058C170.284 15.5249 170.513 15.1864 170.813 14.8901C171.114 14.5939 171.454 14.3696 171.835 14.2173C172.216 14.0607 172.622 13.9824 173.054 13.9824C173.477 13.9824 173.877 14.0607 174.254 14.2173C174.635 14.3739 174.98 14.6024 175.288 14.9028C175.589 15.1948 175.817 15.5312 175.974 15.9121C176.131 16.2887 176.209 16.6886 176.209 17.1118C176.209 17.535 176.131 17.9349 175.974 18.3115C175.817 18.6839 175.589 19.0161 175.288 19.3081C174.98 19.6128 174.633 19.8455 174.247 20.0063C173.867 20.1672 173.469 20.2476 173.054 20.2476C172.627 20.2476 172.22 20.1672 171.835 20.0063C171.454 19.8498 171.114 19.6234 170.813 19.3271C170.513 19.0225 170.284 18.6839 170.128 18.3115C169.971 17.9391 169.893 17.5392 169.893 17.1118ZM185.851 20V16.5786C185.851 15.9904 185.732 15.5545 185.496 15.271C185.259 14.9832 184.895 14.8394 184.404 14.8394C184.137 14.8394 183.89 14.8944 183.661 15.0044C183.437 15.1102 183.246 15.2625 183.09 15.4614C182.975 15.6138 182.893 15.7915 182.842 15.9946C182.791 16.1978 182.766 16.5321 182.766 16.9976V20H181.808V16.5786C181.808 15.9904 181.689 15.5545 181.452 15.271C181.215 14.9832 180.851 14.8394 180.36 14.8394C180.094 14.8394 179.844 14.8944 179.611 15.0044C179.383 15.1102 179.19 15.2625 179.034 15.4614C178.924 15.6095 178.843 15.7809 178.792 15.9756C178.746 16.1702 178.723 16.5109 178.723 16.9976V20H177.764V14.1919H178.735V15.0869C178.976 14.7145 179.264 14.4373 179.599 14.2554C179.933 14.0734 180.318 13.9824 180.754 13.9824C181.224 13.9824 181.623 14.084 181.954 14.2871C182.284 14.486 182.533 14.778 182.703 15.1631C182.952 14.7653 183.246 14.4691 183.585 14.2744C183.928 14.0798 184.323 13.9824 184.772 13.9824C185.419 13.9824 185.925 14.1644 186.289 14.5283C186.653 14.8923 186.835 15.3979 186.835 16.0454V20H185.851ZM192.916 16.439C192.882 15.9269 192.711 15.5334 192.402 15.2583C192.097 14.979 191.678 14.8394 191.145 14.8394C190.663 14.8394 190.26 14.9854 189.939 15.2773C189.617 15.5651 189.431 15.9523 189.38 16.439H192.916ZM193.982 17.2451H189.38V17.334C189.38 17.9561 189.558 18.4596 189.913 18.8447C190.269 19.2256 190.732 19.416 191.304 19.416C191.693 19.416 192.044 19.3123 192.357 19.105C192.67 18.8934 192.948 18.576 193.189 18.1528L193.944 18.6606C193.652 19.1854 193.28 19.5811 192.827 19.8477C192.374 20.1143 191.85 20.2476 191.253 20.2476C190.368 20.2476 189.653 19.9556 189.107 19.3716C188.561 18.7876 188.288 18.0216 188.288 17.0737C188.288 16.1639 188.559 15.4191 189.101 14.8394C189.643 14.2596 190.339 13.9697 191.189 13.9697C192.048 13.9697 192.728 14.2448 193.227 14.7949C193.731 15.3451 193.982 16.0962 193.982 17.0483V17.2451ZM190.212 13.2778L191.507 11.0688H192.783L190.974 13.2778H190.212ZM195.499 20V14.1919H196.382V15.3979C196.648 14.8944 196.932 14.5347 197.232 14.3188C197.533 14.103 197.899 13.9951 198.33 13.9951C198.449 13.9951 198.563 14.0057 198.673 14.0269C198.783 14.0438 198.893 14.0713 199.003 14.1094L198.673 15.0044C198.559 14.9663 198.451 14.9388 198.35 14.9219C198.248 14.9007 198.151 14.8901 198.058 14.8901C197.533 14.8901 197.139 15.0806 196.877 15.4614C196.614 15.8381 196.483 16.4072 196.483 17.1689V20H195.499ZM204.5 17.1499C204.5 16.494 204.321 15.9671 203.961 15.5693C203.605 15.1673 203.14 14.9663 202.564 14.9663C201.968 14.9663 201.502 15.1504 201.168 15.5186C200.834 15.8867 200.666 16.4009 200.666 17.061C200.666 17.7635 200.834 18.3052 201.168 18.686C201.506 19.0669 201.985 19.2573 202.602 19.2573C203.195 19.2573 203.658 19.0732 203.993 18.7051C204.331 18.3327 204.5 17.8143 204.5 17.1499ZM205.465 14.1919V20H204.5V18.9463C204.268 19.3695 203.969 19.6932 203.605 19.9175C203.246 20.1375 202.842 20.2476 202.393 20.2476C201.559 20.2476 200.886 19.9619 200.374 19.3906C199.867 18.8151 199.613 18.0555 199.613 17.1118C199.613 16.1554 199.86 15.3958 200.355 14.833C200.85 14.266 201.513 13.9824 202.342 13.9824C202.829 13.9824 203.25 14.0924 203.605 14.3125C203.965 14.5283 204.255 14.8521 204.475 15.2837V14.1919H205.465ZM207.611 15.0107H206.544V14.1919H207.611V11.8496H208.626V14.1919H209.693V15.0107H208.626V20H207.611V15.0107ZM217.189 20V11.7607H215.291L215.913 10.7959H218.268V20H217.189Z" fill="white"/>
<path d="M11.456 76.7827L9.97696 80.2041H12.935L11.456 76.7827ZM11.456 74.3389L15.6835 84H14.4838L13.2777 81.1499H9.64688L8.44083 84H7.24112L11.456 74.3389ZM20.9838 81.1118C20.9838 80.4601 20.8061 79.9354 20.4506 79.5376C20.0951 79.1398 19.6275 78.9409 19.0478 78.9409C18.4511 78.9409 17.9856 79.125 17.6513 79.4932C17.317 79.8613 17.1498 80.3755 17.1498 81.0356C17.1498 81.7381 17.317 82.2798 17.6513 82.6606C17.9898 83.0415 18.468 83.2319 19.0858 83.2319C19.6783 83.2319 20.1417 83.0457 20.476 82.6733C20.8145 82.2967 20.9838 81.7762 20.9838 81.1118ZM21.9486 78.1919V83.8984C21.9486 84.529 21.9063 84.9775 21.8217 85.2441C21.7371 85.5107 21.5974 85.7498 21.4027 85.9614C21.1319 86.2534 20.7997 86.4714 20.4062 86.6152C20.0168 86.7591 19.5683 86.8311 19.0605 86.8311C18.1802 86.8311 17.4926 86.63 16.9975 86.228C16.5066 85.826 16.2506 85.2568 16.2294 84.5205H17.3466V84.5967C17.3466 85.0326 17.4968 85.369 17.7973 85.606C18.0977 85.8429 18.523 85.9614 19.0732 85.9614C19.4709 85.9614 19.8095 85.8958 20.0888 85.7646C20.3723 85.6377 20.5881 85.4473 20.7362 85.1934C20.8251 85.0495 20.8886 84.8823 20.9267 84.6919C20.9648 84.5015 20.9838 84.2285 20.9838 83.873V83.416V82.8955C20.7595 83.3102 20.4654 83.6297 20.1015 83.854C19.7375 84.0741 19.3292 84.1841 18.8764 84.1841C18.0427 84.1841 17.3699 83.9006 16.8578 83.3335C16.35 82.7664 16.0961 82.0132 16.0961 81.0737C16.0961 80.1258 16.3437 79.3747 16.8388 78.8203C17.3339 78.2617 17.9962 77.9824 18.8256 77.9824C19.308 77.9824 19.7312 78.0924 20.0951 78.3125C20.4591 78.5283 20.7468 78.8478 20.9584 79.271V78.1919H21.9486ZM28.4106 81.1118C28.4106 80.4601 28.2328 79.9354 27.8773 79.5376C27.5219 79.1398 27.0543 78.9409 26.4745 78.9409C25.8778 78.9409 25.4123 79.125 25.078 79.4932C24.7437 79.8613 24.5766 80.3755 24.5766 81.0356C24.5766 81.7381 24.7437 82.2798 25.078 82.6606C25.4166 83.0415 25.8948 83.2319 26.5126 83.2319C27.1051 83.2319 27.5684 83.0457 27.9027 82.6733C28.2413 82.2967 28.4106 81.7762 28.4106 81.1118ZM29.3754 78.1919V83.8984C29.3754 84.529 29.3331 84.9775 29.2484 85.2441C29.1638 85.5107 29.0242 85.7498 28.8295 85.9614C28.5587 86.2534 28.2265 86.4714 27.8329 86.6152C27.4436 86.7591 26.995 86.8311 26.4872 86.8311C25.607 86.8311 24.9193 86.63 24.4242 86.228C23.9333 85.826 23.6773 85.2568 23.6562 84.5205H24.7733V84.5967C24.7733 85.0326 24.9236 85.369 25.224 85.606C25.5245 85.8429 25.9498 85.9614 26.4999 85.9614C26.8977 85.9614 27.2362 85.8958 27.5155 85.7646C27.7991 85.6377 28.0149 85.4473 28.163 85.1934C28.2519 85.0495 28.3153 84.8823 28.3534 84.6919C28.3915 84.5015 28.4106 84.2285 28.4106 83.873V83.416V82.8955C28.1863 83.3102 27.8922 83.6297 27.5282 83.854C27.1643 84.0741 26.7559 84.1841 26.3031 84.1841C25.4695 84.1841 24.7966 83.9006 24.2846 83.3335C23.7768 82.7664 23.5229 82.0132 23.5229 81.0737C23.5229 80.1258 23.7704 79.3747 24.2655 78.8203C24.7607 78.2617 25.4229 77.9824 26.2523 77.9824C26.7348 77.9824 27.1579 78.0924 27.5219 78.3125C27.8858 78.5283 28.1736 78.8478 28.3852 79.271V78.1919H29.3754ZM31.4447 84V74.1611H32.4604V84H31.4447ZM35.1264 81.1118C35.1264 81.7254 35.3316 82.2459 35.7421 82.6733C36.1526 83.0965 36.6498 83.3081 37.2338 83.3081C37.8135 83.3081 38.3065 83.0965 38.7128 82.6733C39.119 82.2459 39.3222 81.7254 39.3222 81.1118C39.3222 80.4982 39.119 79.9798 38.7128 79.5566C38.3065 79.1292 37.8135 78.9155 37.2338 78.9155C36.6456 78.9155 36.1462 79.1292 35.7357 79.5566C35.3295 79.9798 35.1264 80.4982 35.1264 81.1118ZM34.0727 81.1118C34.0727 80.6844 34.151 80.2824 34.3075 79.9058C34.4641 79.5249 34.6926 79.1864 34.9931 78.8901C35.2935 78.5939 35.6342 78.3696 36.015 78.2173C36.3959 78.0607 36.8022 77.9824 37.2338 77.9824C37.657 77.9824 38.0569 78.0607 38.4335 78.2173C38.8144 78.3739 39.1593 78.6024 39.4682 78.9028C39.7686 79.1948 39.9971 79.5312 40.1537 79.9121C40.3103 80.2887 40.3886 80.6886 40.3886 81.1118C40.3886 81.535 40.3103 81.9349 40.1537 82.3115C39.9971 82.6839 39.7686 83.0161 39.4682 83.3081C39.1593 83.6128 38.8122 83.8455 38.4272 84.0063C38.0463 84.1672 37.6485 84.2476 37.2338 84.2476C36.8064 84.2476 36.4001 84.1672 36.015 84.0063C35.6342 83.8498 35.2935 83.6234 34.9931 83.3271C34.6926 83.0225 34.4641 82.6839 34.3075 82.3115C34.151 81.9391 34.0727 81.5392 34.0727 81.1118ZM50.0307 84V80.5786C50.0307 79.9904 49.9122 79.5545 49.6752 79.271C49.4382 78.9832 49.0743 78.8394 48.5834 78.8394C48.3168 78.8394 48.0692 78.8944 47.8407 79.0044C47.6164 79.1102 47.426 79.2625 47.2694 79.4614C47.1552 79.6138 47.0727 79.7915 47.0219 79.9946C46.9711 80.1978 46.9457 80.5321 46.9457 80.9976V84H45.9872V80.5786C45.9872 79.9904 45.8687 79.5545 45.6317 79.271C45.3948 78.9832 45.0308 78.8394 44.5399 78.8394C44.2733 78.8394 44.0237 78.8944 43.7909 79.0044C43.5624 79.1102 43.3699 79.2625 43.2133 79.4614C43.1033 79.6095 43.0229 79.7809 42.9721 79.9756C42.9255 80.1702 42.9023 80.5109 42.9023 80.9976V84H41.9438V78.1919H42.9149V79.0869C43.1562 78.7145 43.4439 78.4373 43.7782 78.2554C44.1125 78.0734 44.4976 77.9824 44.9335 77.9824C45.4032 77.9824 45.8031 78.084 46.1332 78.2871C46.4633 78.486 46.713 78.778 46.8822 79.1631C47.1319 78.7653 47.426 78.4691 47.7646 78.2744C48.1073 78.0798 48.503 77.9824 48.9516 77.9824C49.599 77.9824 50.1047 78.1644 50.4687 78.5283C50.8326 78.8923 51.0146 79.3979 51.0146 80.0454V84H50.0307ZM57.0956 80.439C57.0618 79.9269 56.8904 79.5334 56.5815 79.2583C56.2768 78.979 55.8578 78.8394 55.3246 78.8394C54.8422 78.8394 54.4402 78.9854 54.1186 79.2773C53.7969 79.5651 53.6107 79.9523 53.56 80.439H57.0956ZM58.162 81.2451H53.56V81.334C53.56 81.9561 53.7377 82.4596 54.0932 82.8447C54.4486 83.2256 54.912 83.416 55.4833 83.416C55.8726 83.416 56.2239 83.3123 56.537 83.105C56.8502 82.8934 57.1273 82.576 57.3686 82.1528L58.1239 82.6606C57.8319 83.1854 57.4595 83.5811 57.0067 83.8477C56.5539 84.1143 56.0292 84.2476 55.4325 84.2476C54.5481 84.2476 53.8329 83.9556 53.287 83.3716C52.7411 82.7876 52.4682 82.0216 52.4682 81.0737C52.4682 80.1639 52.739 79.4191 53.2807 78.8394C53.8223 78.2596 54.5185 77.9697 55.369 77.9697C56.2281 77.9697 56.9073 78.2448 57.4066 78.7949C57.9102 79.3451 58.162 80.0962 58.162 81.0483V81.2451ZM54.3915 77.2778L55.6864 75.0688H56.9623L55.1532 77.2778H54.3915ZM59.6791 84V78.1919H60.5614V79.3979C60.828 78.8944 61.1116 78.5347 61.412 78.3188C61.7125 78.103 62.0785 77.9951 62.5102 77.9951C62.6287 77.9951 62.7429 78.0057 62.8529 78.0269C62.963 78.0438 63.073 78.0713 63.183 78.1094L62.8529 79.0044C62.7387 78.9663 62.6308 78.9388 62.5292 78.9219C62.4276 78.9007 62.3303 78.8901 62.2372 78.8901C61.7125 78.8901 61.3189 79.0806 61.0565 79.4614C60.7942 79.8381 60.663 80.4072 60.663 81.1689V84H59.6791ZM68.6801 81.1499C68.6801 80.494 68.5002 79.9671 68.1405 79.5693C67.7851 79.1673 67.3196 78.9663 66.744 78.9663C66.1474 78.9663 65.6819 79.1504 65.3476 79.5186C65.0133 79.8867 64.8461 80.4009 64.8461 81.061C64.8461 81.7635 65.0133 82.3052 65.3476 82.686C65.6861 83.0669 66.1643 83.2573 66.7821 83.2573C67.3746 83.2573 67.838 83.0732 68.1723 82.7051C68.5108 82.3327 68.6801 81.8143 68.6801 81.1499ZM69.6449 78.1919V84H68.6801V82.9463C68.4473 83.3695 68.149 83.6932 67.7851 83.9175C67.4254 84.1375 67.0212 84.2476 66.5727 84.2476C65.739 84.2476 65.0662 83.9619 64.5541 83.3906C64.0463 82.8151 63.7924 82.0555 63.7924 81.1118C63.7924 80.1554 64.0399 79.3958 64.5351 78.833C65.0302 78.266 65.6925 77.9824 66.5219 77.9824C67.0085 77.9824 67.4296 78.0924 67.7851 78.3125C68.1448 78.5283 68.4346 78.8521 68.6547 79.2837V78.1919H69.6449ZM71.7904 79.0107H70.724V78.1919H71.7904V75.8496H72.8061V78.1919H73.8725V79.0107H72.8061V84H71.7904V79.0107ZM84.1493 82.9463V84H78.5507L80.5121 81.6704C80.6433 81.5181 80.8316 81.2959 81.0771 81.0039C82.5878 79.2139 83.3432 77.9634 83.3432 77.2524C83.3432 76.7743 83.1739 76.3849 82.8354 76.0845C82.501 75.7798 82.0609 75.6274 81.515 75.6274C80.9268 75.6274 80.4761 75.7925 80.163 76.1226C79.8498 76.4484 79.6933 76.9202 79.6933 77.5381V77.646H78.6523C78.6523 77.6164 78.6501 77.5741 78.6459 77.519C78.6417 77.464 78.6396 77.4238 78.6396 77.3984C78.6396 76.5182 78.8956 75.8348 79.4076 75.3481C79.9197 74.8573 80.6348 74.6118 81.5531 74.6118C82.4545 74.6118 83.1591 74.8403 83.6669 75.2974C84.1789 75.7502 84.435 76.3807 84.435 77.189C84.435 77.7729 84.2615 78.3781 83.9145 79.0044C83.5717 79.6265 82.9623 80.4157 82.0863 81.3721L80.6264 82.9463H84.1493Z" fill="white"/>
<path d="M144.934 76.7827L143.455 80.2041H146.413L144.934 76.7827ZM144.934 74.3389L149.162 84H147.962L146.756 81.1499H143.125L141.919 84H140.72L144.934 74.3389ZM154.462 81.1118C154.462 80.4601 154.285 79.9354 153.929 79.5376C153.574 79.1398 153.106 78.9409 152.526 78.9409C151.93 78.9409 151.464 79.125 151.13 79.4932C150.795 79.8613 150.628 80.3755 150.628 81.0356C150.628 81.7381 150.795 82.2798 151.13 82.6606C151.468 83.0415 151.947 83.2319 152.564 83.2319C153.157 83.2319 153.62 83.0457 153.954 82.6733C154.293 82.2967 154.462 81.7762 154.462 81.1118ZM155.427 78.1919V83.8984C155.427 84.529 155.385 84.9775 155.3 85.2441C155.216 85.5107 155.076 85.7498 154.881 85.9614C154.61 86.2534 154.278 86.4714 153.885 86.6152C153.495 86.7591 153.047 86.8311 152.539 86.8311C151.659 86.8311 150.971 86.63 150.476 86.228C149.985 85.826 149.729 85.2568 149.708 84.5205H150.825V84.5967C150.825 85.0326 150.975 85.369 151.276 85.606C151.576 85.8429 152.002 85.9614 152.552 85.9614C152.949 85.9614 153.288 85.8958 153.567 85.7646C153.851 85.6377 154.067 85.4473 154.215 85.1934C154.304 85.0495 154.367 84.8823 154.405 84.6919C154.443 84.5015 154.462 84.2285 154.462 83.873V83.416V82.8955C154.238 83.3102 153.944 83.6297 153.58 83.854C153.216 84.0741 152.808 84.1841 152.355 84.1841C151.521 84.1841 150.848 83.9006 150.336 83.3335C149.829 82.7664 149.575 82.0132 149.575 81.0737C149.575 80.1258 149.822 79.3747 150.317 78.8203C150.812 78.2617 151.475 77.9824 152.304 77.9824C152.787 77.9824 153.21 78.0924 153.574 78.3125C153.938 78.5283 154.225 78.8478 154.437 79.271V78.1919H155.427ZM161.889 81.1118C161.889 80.4601 161.711 79.9354 161.356 79.5376C161 79.1398 160.533 78.9409 159.953 78.9409C159.356 78.9409 158.891 79.125 158.557 79.4932C158.222 79.8613 158.055 80.3755 158.055 81.0356C158.055 81.7381 158.222 82.2798 158.557 82.6606C158.895 83.0415 159.373 83.2319 159.991 83.2319C160.584 83.2319 161.047 83.0457 161.381 82.6733C161.72 82.2967 161.889 81.7762 161.889 81.1118ZM162.854 78.1919V83.8984C162.854 84.529 162.812 84.9775 162.727 85.2441C162.642 85.5107 162.503 85.7498 162.308 85.9614C162.037 86.2534 161.705 86.4714 161.311 86.6152C160.922 86.7591 160.474 86.8311 159.966 86.8311C159.086 86.8311 158.398 86.63 157.903 86.228C157.412 85.826 157.156 85.2568 157.135 84.5205H158.252V84.5967C158.252 85.0326 158.402 85.369 158.703 85.606C159.003 85.8429 159.428 85.9614 159.978 85.9614C160.376 85.9614 160.715 85.8958 160.994 85.7646C161.278 85.6377 161.493 85.4473 161.642 85.1934C161.73 85.0495 161.794 84.8823 161.832 84.6919C161.87 84.5015 161.889 84.2285 161.889 83.873V83.416V82.8955C161.665 83.3102 161.371 83.6297 161.007 83.854C160.643 84.0741 160.234 84.1841 159.782 84.1841C158.948 84.1841 158.275 83.9006 157.763 83.3335C157.255 82.7664 157.001 82.0132 157.001 81.0737C157.001 80.1258 157.249 79.3747 157.744 78.8203C158.239 78.2617 158.901 77.9824 159.731 77.9824C160.213 77.9824 160.636 78.0924 161 78.3125C161.364 78.5283 161.652 78.8478 161.864 79.271V78.1919H162.854ZM164.923 84V74.1611H165.939V84H164.923ZM168.605 81.1118C168.605 81.7254 168.81 82.2459 169.221 82.6733C169.631 83.0965 170.128 83.3081 170.712 83.3081C171.292 83.3081 171.785 83.0965 172.191 82.6733C172.598 82.2459 172.801 81.7254 172.801 81.1118C172.801 80.4982 172.598 79.9798 172.191 79.5566C171.785 79.1292 171.292 78.9155 170.712 78.9155C170.124 78.9155 169.625 79.1292 169.214 79.5566C168.808 79.9798 168.605 80.4982 168.605 81.1118ZM167.551 81.1118C167.551 80.6844 167.629 80.2824 167.786 79.9058C167.943 79.5249 168.171 79.1864 168.472 78.8901C168.772 78.5939 169.113 78.3696 169.494 78.2173C169.874 78.0607 170.281 77.9824 170.712 77.9824C171.135 77.9824 171.535 78.0607 171.912 78.2173C172.293 78.3739 172.638 78.6024 172.947 78.9028C173.247 79.1948 173.476 79.5312 173.632 79.9121C173.789 80.2887 173.867 80.6886 173.867 81.1118C173.867 81.535 173.789 81.9349 173.632 82.3115C173.476 82.6839 173.247 83.0161 172.947 83.3081C172.638 83.6128 172.291 83.8455 171.906 84.0063C171.525 84.1672 171.127 84.2476 170.712 84.2476C170.285 84.2476 169.879 84.1672 169.494 84.0063C169.113 83.8498 168.772 83.6234 168.472 83.3271C168.171 83.0225 167.943 82.6839 167.786 82.3115C167.629 81.9391 167.551 81.5392 167.551 81.1118ZM183.509 84V80.5786C183.509 79.9904 183.391 79.5545 183.154 79.271C182.917 78.9832 182.553 78.8394 182.062 78.8394C181.795 78.8394 181.548 78.8944 181.319 79.0044C181.095 79.1102 180.905 79.2625 180.748 79.4614C180.634 79.6138 180.551 79.7915 180.5 79.9946C180.45 80.1978 180.424 80.5321 180.424 80.9976V84H179.466V80.5786C179.466 79.9904 179.347 79.5545 179.11 79.271C178.873 78.9832 178.509 78.8394 178.018 78.8394C177.752 78.8394 177.502 78.8944 177.269 79.0044C177.041 79.1102 176.848 79.2625 176.692 79.4614C176.582 79.6095 176.501 79.7809 176.451 79.9756C176.404 80.1702 176.381 80.5109 176.381 80.9976V84H175.422V78.1919H176.393V79.0869C176.635 78.7145 176.922 78.4373 177.257 78.2554C177.591 78.0734 177.976 77.9824 178.412 77.9824C178.882 77.9824 179.282 78.084 179.612 78.2871C179.942 78.486 180.191 78.778 180.361 79.1631C180.61 78.7653 180.905 78.4691 181.243 78.2744C181.586 78.0798 181.982 77.9824 182.43 77.9824C183.078 77.9824 183.583 78.1644 183.947 78.5283C184.311 78.8923 184.493 79.3979 184.493 80.0454V84H183.509ZM190.574 80.439C190.54 79.9269 190.369 79.5334 190.06 79.2583C189.755 78.979 189.336 78.8394 188.803 78.8394C188.321 78.8394 187.919 78.9854 187.597 79.2773C187.275 79.5651 187.089 79.9523 187.038 80.439H190.574ZM191.641 81.2451H187.038V81.334C187.038 81.9561 187.216 82.4596 187.572 82.8447C187.927 83.2256 188.391 83.416 188.962 83.416C189.351 83.416 189.702 83.3123 190.016 83.105C190.329 82.8934 190.606 82.576 190.847 82.1528L191.602 82.6606C191.31 83.1854 190.938 83.5811 190.485 83.8477C190.032 84.1143 189.508 84.2476 188.911 84.2476C188.027 84.2476 187.311 83.9556 186.766 83.3716C186.22 82.7876 185.947 82.0216 185.947 81.0737C185.947 80.1639 186.218 79.4191 186.759 78.8394C187.301 78.2596 187.997 77.9697 188.848 77.9697C189.707 77.9697 190.386 78.2448 190.885 78.7949C191.389 79.3451 191.641 80.0962 191.641 81.0483V81.2451ZM187.87 77.2778L189.165 75.0688H190.441L188.632 77.2778H187.87ZM193.158 84V78.1919H194.04V79.3979C194.307 78.8944 194.59 78.5347 194.891 78.3188C195.191 78.103 195.557 77.9951 195.989 77.9951C196.107 77.9951 196.221 78.0057 196.331 78.0269C196.441 78.0438 196.552 78.0713 196.662 78.1094L196.331 79.0044C196.217 78.9663 196.109 78.9388 196.008 78.9219C195.906 78.9007 195.809 78.8901 195.716 78.8901C195.191 78.8901 194.797 79.0806 194.535 79.4614C194.273 79.8381 194.142 80.4072 194.142 81.1689V84H193.158ZM202.159 81.1499C202.159 80.494 201.979 79.9671 201.619 79.5693C201.264 79.1673 200.798 78.9663 200.223 78.9663C199.626 78.9663 199.16 79.1504 198.826 79.5186C198.492 79.8867 198.325 80.4009 198.325 81.061C198.325 81.7635 198.492 82.3052 198.826 82.686C199.165 83.0669 199.643 83.2573 200.261 83.2573C200.853 83.2573 201.316 83.0732 201.651 82.7051C201.989 82.3327 202.159 81.8143 202.159 81.1499ZM203.123 78.1919V84H202.159V82.9463C201.926 83.3695 201.628 83.6932 201.264 83.9175C200.904 84.1375 200.5 84.2476 200.051 84.2476C199.218 84.2476 198.545 83.9619 198.033 83.3906C197.525 82.8151 197.271 82.0555 197.271 81.1118C197.271 80.1554 197.518 79.3958 198.014 78.833C198.509 78.266 199.171 77.9824 200 77.9824C200.487 77.9824 200.908 78.0924 201.264 78.3125C201.623 78.5283 201.913 78.8521 202.133 79.2837V78.1919H203.123ZM205.269 79.0107H204.203V78.1919H205.269V75.8496H206.285V78.1919H207.351V79.0107H206.285V84H205.269V79.0107ZM212.017 81.645H213.146V81.7529C213.146 82.2269 213.301 82.6035 213.61 82.8828C213.919 83.1579 214.34 83.2954 214.873 83.2954C215.487 83.2954 215.961 83.141 216.295 82.832C216.629 82.5189 216.796 82.0767 216.796 81.5054C216.796 80.9045 216.625 80.4517 216.282 80.147C215.944 79.8381 215.44 79.6836 214.771 79.6836C214.687 79.6836 214.621 79.6857 214.575 79.6899C214.532 79.6899 214.49 79.6921 214.448 79.6963V78.7886C214.482 78.7886 214.53 78.7907 214.594 78.7949C214.661 78.7992 214.712 78.8013 214.746 78.8013C215.385 78.8013 215.867 78.6616 216.193 78.3823C216.519 78.103 216.682 77.6883 216.682 77.1382C216.682 76.6515 216.534 76.2664 216.238 75.9829C215.941 75.6951 215.539 75.5513 215.032 75.5513C214.49 75.5513 214.067 75.6846 213.762 75.9512C213.462 76.2135 213.299 76.5965 213.273 77.1001L212.182 77.0938C212.224 76.2939 212.49 75.6803 212.981 75.2529C213.476 74.8255 214.168 74.6118 215.057 74.6118C215.912 74.6118 216.589 74.834 217.088 75.2783C217.588 75.7227 217.837 76.3236 217.837 77.0811C217.837 77.6312 217.691 78.0967 217.399 78.4775C217.112 78.8584 216.707 79.1165 216.187 79.252C216.741 79.3451 217.175 79.5947 217.488 80.001C217.801 80.403 217.958 80.9172 217.958 81.5435C217.958 82.3856 217.681 83.0479 217.126 83.5303C216.576 84.0085 215.812 84.2476 214.835 84.2476C213.976 84.2476 213.29 84.0275 212.778 83.5874C212.27 83.1473 212.017 82.557 212.017 81.8164V81.645Z" fill="white"/>
<path d="M32.6689 136.929C32.2245 136.446 31.7506 136.091 31.247 135.862C30.7434 135.63 30.1869 135.513 29.5775 135.513C29.0867 135.513 28.6064 135.613 28.1366 135.812C27.6711 136.01 27.267 136.288 26.9242 136.643C26.5688 137.011 26.3022 137.424 26.1244 137.881C25.9467 138.334 25.8578 138.835 25.8578 139.385C25.8578 139.817 25.9107 140.215 26.0165 140.579C26.1223 140.943 26.281 141.277 26.4926 141.582C26.865 142.111 27.322 142.519 27.8637 142.807C28.4096 143.09 28.9978 143.232 29.6283 143.232C30.2208 143.232 30.7709 143.109 31.2787 142.864C31.7865 142.618 32.2499 142.252 32.6689 141.766V143.232C32.2076 143.566 31.7104 143.82 31.1772 143.994C30.6482 144.163 30.1002 144.248 29.5331 144.248C29.0422 144.248 28.564 144.174 28.0985 144.025C27.633 143.882 27.1972 143.67 26.7909 143.391C26.1138 142.921 25.5954 142.343 25.2357 141.658C24.8803 140.972 24.7025 140.219 24.7025 139.398C24.7025 138.683 24.821 138.033 25.058 137.449C25.2992 136.861 25.6653 136.328 26.1562 135.85C26.6301 135.393 27.1549 135.052 27.7304 134.828C28.3059 134.599 28.9343 134.485 29.6156 134.485C30.1531 134.485 30.6736 134.567 31.1772 134.732C31.6807 134.893 32.178 135.145 32.6689 135.488V136.929ZM34.5097 144V134.161H35.5253V144H34.5097ZM38.5404 138.192V141.048C38.5404 141.882 38.6632 142.466 38.9086 142.8C39.1583 143.13 39.5772 143.295 40.1654 143.295C40.7537 143.295 41.1684 143.132 41.4096 142.807C41.655 142.477 41.7777 141.89 41.7777 141.048V138.192H42.7934V141.582C42.7934 142.458 42.5691 143.122 42.1205 143.575C41.6719 144.023 41.0118 144.248 40.14 144.248C39.2768 144.248 38.6208 144.021 38.1723 143.568C37.7237 143.116 37.4994 142.453 37.4994 141.582V138.192H38.5404ZM44.101 143.022L44.9516 142.451C45.1124 142.76 45.3155 142.993 45.5609 143.149C45.8064 143.302 46.0963 143.378 46.4306 143.378C46.7564 143.378 47.0188 143.298 47.2177 143.137C47.4208 142.976 47.5224 142.764 47.5224 142.502C47.5224 142.299 47.4525 142.13 47.3129 141.994C47.1775 141.859 46.9426 141.734 46.6083 141.62C46.5745 141.607 46.5194 141.588 46.4433 141.562C45.0299 141.076 44.3232 140.466 44.3232 139.734C44.3232 139.218 44.5136 138.797 44.8944 138.471C45.2753 138.145 45.7704 137.982 46.3798 137.982C46.8834 137.982 47.315 138.084 47.6747 138.287C48.0344 138.486 48.2926 138.77 48.4491 139.138L47.643 139.633C47.5245 139.366 47.3489 139.161 47.1161 139.017C46.8876 138.873 46.621 138.801 46.3163 138.801C46.0243 138.801 45.7852 138.884 45.599 139.049C45.4171 139.21 45.3261 139.417 45.3261 139.671C45.3261 140.026 45.7112 140.325 46.4814 140.566C46.6252 140.612 46.7395 140.648 46.8241 140.674C47.4547 140.877 47.8926 141.11 48.1381 141.372C48.3878 141.63 48.5126 141.973 48.5126 142.4C48.5126 142.951 48.3158 143.397 47.9223 143.74C47.5329 144.078 47.023 144.248 46.3925 144.248C45.8508 144.248 45.3896 144.146 45.0087 143.943C44.6321 143.74 44.3295 143.433 44.101 143.022ZM50.163 139.011H49.0966V138.192H50.163V135.85H51.1786V138.192H52.245V139.011H51.1786V144H50.163V139.011ZM57.4945 140.439C57.4607 139.927 57.2893 139.533 56.9804 139.258C56.6757 138.979 56.2567 138.839 55.7235 138.839C55.2411 138.839 54.8391 138.985 54.5175 139.277C54.1959 139.565 54.0097 139.952 53.9589 140.439H57.4945ZM58.5609 141.245H53.9589V141.334C53.9589 141.956 54.1366 142.46 54.4921 142.845C54.8476 143.226 55.3109 143.416 55.8822 143.416C56.2716 143.416 56.6228 143.312 56.9359 143.105C57.2491 142.893 57.5263 142.576 57.7675 142.153L58.5229 142.661C58.2309 143.185 57.8585 143.581 57.4057 143.848C56.9529 144.114 56.4281 144.248 55.8315 144.248C54.947 144.248 54.2318 143.956 53.6859 143.372C53.14 142.788 52.8671 142.022 52.8671 141.074C52.8671 140.164 53.1379 139.419 53.6796 138.839C54.2213 138.26 54.9174 137.97 55.768 137.97C56.627 137.97 57.3062 138.245 57.8056 138.795C58.3092 139.345 58.5609 140.096 58.5609 141.048V141.245ZM60.078 144V138.192H60.9604V139.398C61.227 138.894 61.5105 138.535 61.8109 138.319C62.1114 138.103 62.4774 137.995 62.9091 137.995C63.0276 137.995 63.1418 138.006 63.2519 138.027C63.3619 138.044 63.4719 138.071 63.5819 138.109L63.2519 139.004C63.1376 138.966 63.0297 138.939 62.9281 138.922C62.8266 138.901 62.7292 138.89 62.6361 138.89C62.1114 138.89 61.7178 139.081 61.4555 139.461C61.1931 139.838 61.0619 140.407 61.0619 141.169V144H60.078ZM71.0023 144V135.761H69.1044L69.7265 134.796H72.0815V144H71.0023Z" fill="white"/>
<path d="M163.025 135.929C162.581 135.446 162.107 135.091 161.603 134.862C161.1 134.63 160.543 134.513 159.934 134.513C159.443 134.513 158.963 134.613 158.493 134.812C158.028 135.01 157.623 135.288 157.281 135.643C156.925 136.011 156.659 136.424 156.481 136.881C156.303 137.334 156.214 137.835 156.214 138.385C156.214 138.817 156.267 139.215 156.373 139.579C156.479 139.943 156.637 140.277 156.849 140.582C157.221 141.111 157.678 141.519 158.22 141.807C158.766 142.09 159.354 142.232 159.985 142.232C160.577 142.232 161.127 142.109 161.635 141.864C162.143 141.618 162.606 141.252 163.025 140.766V142.232C162.564 142.566 162.067 142.82 161.534 142.994C161.005 143.163 160.457 143.248 159.89 143.248C159.399 143.248 158.92 143.174 158.455 143.025C157.989 142.882 157.554 142.67 157.147 142.391C156.47 141.921 155.952 141.343 155.592 140.658C155.237 139.972 155.059 139.219 155.059 138.398C155.059 137.683 155.177 137.033 155.414 136.449C155.656 135.861 156.022 135.328 156.513 134.85C156.987 134.393 157.511 134.052 158.087 133.828C158.662 133.599 159.291 133.485 159.972 133.485C160.51 133.485 161.03 133.567 161.534 133.732C162.037 133.893 162.534 134.145 163.025 134.488V135.929ZM164.866 143V133.161H165.882V143H164.866ZM168.897 137.192V140.048C168.897 140.882 169.02 141.466 169.265 141.8C169.515 142.13 169.934 142.295 170.522 142.295C171.11 142.295 171.525 142.132 171.766 141.807C172.011 141.477 172.134 140.89 172.134 140.048V137.192H173.15V140.582C173.15 141.458 172.926 142.122 172.477 142.575C172.028 143.023 171.368 143.248 170.496 143.248C169.633 143.248 168.977 143.021 168.529 142.568C168.08 142.116 167.856 141.453 167.856 140.582V137.192H168.897ZM174.457 142.022L175.308 141.451C175.469 141.76 175.672 141.993 175.917 142.149C176.163 142.302 176.453 142.378 176.787 142.378C177.113 142.378 177.375 142.298 177.574 142.137C177.777 141.976 177.879 141.764 177.879 141.502C177.879 141.299 177.809 141.13 177.669 140.994C177.534 140.859 177.299 140.734 176.965 140.62C176.931 140.607 176.876 140.588 176.8 140.562C175.386 140.076 174.68 139.466 174.68 138.734C174.68 138.218 174.87 137.797 175.251 137.471C175.632 137.145 176.127 136.982 176.736 136.982C177.24 136.982 177.671 137.084 178.031 137.287C178.391 137.486 178.649 137.77 178.806 138.138L177.999 138.633C177.881 138.366 177.705 138.161 177.473 138.017C177.244 137.873 176.977 137.801 176.673 137.801C176.381 137.801 176.142 137.884 175.955 138.049C175.774 138.21 175.683 138.417 175.683 138.671C175.683 139.026 176.068 139.325 176.838 139.566C176.982 139.612 177.096 139.648 177.181 139.674C177.811 139.877 178.249 140.11 178.495 140.372C178.744 140.63 178.869 140.973 178.869 141.4C178.869 141.951 178.672 142.397 178.279 142.74C177.889 143.078 177.379 143.248 176.749 143.248C176.207 143.248 175.746 143.146 175.365 142.943C174.989 142.74 174.686 142.433 174.457 142.022ZM180.519 138.011H179.453V137.192H180.519V134.85H181.535V137.192H182.601V138.011H181.535V143H180.519V138.011ZM187.851 139.439C187.817 138.927 187.646 138.533 187.337 138.258C187.032 137.979 186.613 137.839 186.08 137.839C185.598 137.839 185.196 137.985 184.874 138.277C184.552 138.565 184.366 138.952 184.315 139.439H187.851ZM188.917 140.245H184.315V140.334C184.315 140.956 184.493 141.46 184.849 141.845C185.204 142.226 185.667 142.416 186.239 142.416C186.628 142.416 186.979 142.312 187.292 142.105C187.606 141.893 187.883 141.576 188.124 141.153L188.879 141.661C188.587 142.185 188.215 142.581 187.762 142.848C187.309 143.114 186.785 143.248 186.188 143.248C185.303 143.248 184.588 142.956 184.042 142.372C183.496 141.788 183.224 141.022 183.224 140.074C183.224 139.164 183.494 138.419 184.036 137.839C184.578 137.26 185.274 136.97 186.124 136.97C186.983 136.97 187.663 137.245 188.162 137.795C188.666 138.345 188.917 139.096 188.917 140.048V140.245ZM190.434 143V137.192H191.317V138.398C191.583 137.894 191.867 137.535 192.167 137.319C192.468 137.103 192.834 136.995 193.266 136.995C193.384 136.995 193.498 137.006 193.608 137.027C193.718 137.044 193.828 137.071 193.938 137.109L193.608 138.004C193.494 137.966 193.386 137.939 193.285 137.922C193.183 137.901 193.086 137.89 192.993 137.89C192.468 137.89 192.074 138.081 191.812 138.461C191.55 138.838 191.418 139.407 191.418 140.169V143H190.434ZM204.139 141.946V143H198.54L200.502 140.67C200.633 140.518 200.821 140.296 201.067 140.004C202.578 138.214 203.333 136.963 203.333 136.252C203.333 135.774 203.164 135.385 202.825 135.084C202.491 134.78 202.051 134.627 201.505 134.627C200.917 134.627 200.466 134.792 200.153 135.123C199.84 135.448 199.683 135.92 199.683 136.538V136.646H198.642C198.642 136.616 198.64 136.574 198.636 136.519C198.631 136.464 198.629 136.424 198.629 136.398C198.629 135.518 198.885 134.835 199.397 134.348C199.909 133.857 200.625 133.612 201.543 133.612C202.444 133.612 203.149 133.84 203.657 134.297C204.169 134.75 204.425 135.381 204.425 136.189C204.425 136.773 204.251 137.378 203.904 138.004C203.561 138.626 202.952 139.416 202.076 140.372L200.616 141.946H204.139Z" fill="white"/>
<path d="M291.039 136.929C290.595 136.446 290.121 136.091 289.618 135.862C289.114 135.63 288.558 135.513 287.948 135.513C287.457 135.513 286.977 135.613 286.507 135.812C286.042 136.01 285.638 136.288 285.295 136.643C284.939 137.011 284.673 137.424 284.495 137.881C284.317 138.334 284.228 138.835 284.228 139.385C284.228 139.817 284.281 140.215 284.387 140.579C284.493 140.943 284.652 141.277 284.863 141.582C285.236 142.111 285.693 142.519 286.234 142.807C286.78 143.09 287.368 143.232 287.999 143.232C288.591 143.232 289.142 143.109 289.649 142.864C290.157 142.618 290.621 142.252 291.039 141.766V143.232C290.578 143.566 290.081 143.82 289.548 143.994C289.019 144.163 288.471 144.248 287.904 144.248C287.413 144.248 286.935 144.174 286.469 144.025C286.004 143.882 285.568 143.67 285.162 143.391C284.484 142.921 283.966 142.343 283.606 141.658C283.251 140.972 283.073 140.219 283.073 139.398C283.073 138.683 283.192 138.033 283.429 137.449C283.67 136.861 284.036 136.328 284.527 135.85C285.001 135.393 285.525 135.052 286.101 134.828C286.677 134.599 287.305 134.485 287.986 134.485C288.524 134.485 289.044 134.567 289.548 134.732C290.051 134.893 290.549 135.145 291.039 135.488V136.929ZM292.88 144V134.161H293.896V144H292.88ZM296.911 138.192V141.048C296.911 141.882 297.034 142.466 297.279 142.8C297.529 143.13 297.948 143.295 298.536 143.295C299.124 143.295 299.539 143.132 299.78 142.807C300.026 142.477 300.148 141.89 300.148 141.048V138.192H301.164V141.582C301.164 142.458 300.94 143.122 300.491 143.575C300.043 144.023 299.382 144.248 298.511 144.248C297.647 144.248 296.991 144.021 296.543 143.568C296.094 143.116 295.87 142.453 295.87 141.582V138.192H296.911ZM302.472 143.022L303.322 142.451C303.483 142.76 303.686 142.993 303.932 143.149C304.177 143.302 304.467 143.378 304.801 143.378C305.127 143.378 305.389 143.298 305.588 143.137C305.791 142.976 305.893 142.764 305.893 142.502C305.893 142.299 305.823 142.13 305.684 141.994C305.548 141.859 305.313 141.734 304.979 141.62C304.945 141.607 304.89 141.588 304.814 141.562C303.4 141.076 302.694 140.466 302.694 139.734C302.694 139.218 302.884 138.797 303.265 138.471C303.646 138.145 304.141 137.982 304.75 137.982C305.254 137.982 305.686 138.084 306.045 138.287C306.405 138.486 306.663 138.77 306.82 139.138L306.014 139.633C305.895 139.366 305.719 139.161 305.487 139.017C305.258 138.873 304.992 138.801 304.687 138.801C304.395 138.801 304.156 138.884 303.97 139.049C303.788 139.21 303.697 139.417 303.697 139.671C303.697 140.026 304.082 140.325 304.852 140.566C304.996 140.612 305.11 140.648 305.195 140.674C305.825 140.877 306.263 141.11 306.509 141.372C306.758 141.63 306.883 141.973 306.883 142.4C306.883 142.951 306.686 143.397 306.293 143.74C305.904 144.078 305.394 144.248 304.763 144.248C304.221 144.248 303.76 144.146 303.379 143.943C303.003 143.74 302.7 143.433 302.472 143.022ZM308.534 139.011H307.467V138.192H308.534V135.85H309.549V138.192H310.616V139.011H309.549V144H308.534V139.011ZM315.865 140.439C315.831 139.927 315.66 139.533 315.351 139.258C315.046 138.979 314.627 138.839 314.094 138.839C313.612 138.839 313.21 138.985 312.888 139.277C312.566 139.565 312.38 139.952 312.329 140.439H315.865ZM316.932 141.245H312.329V141.334C312.329 141.956 312.507 142.46 312.863 142.845C313.218 143.226 313.682 143.416 314.253 143.416C314.642 143.416 314.993 143.312 315.307 143.105C315.62 142.893 315.897 142.576 316.138 142.153L316.893 142.661C316.601 143.185 316.229 143.581 315.776 143.848C315.323 144.114 314.799 144.248 314.202 144.248C313.318 144.248 312.602 143.956 312.057 143.372C311.511 142.788 311.238 142.022 311.238 141.074C311.238 140.164 311.509 139.419 312.05 138.839C312.592 138.26 313.288 137.97 314.139 137.97C314.998 137.97 315.677 138.245 316.176 138.795C316.68 139.345 316.932 140.096 316.932 141.048V141.245ZM318.449 144V138.192H319.331V139.398C319.598 138.894 319.881 138.535 320.182 138.319C320.482 138.103 320.848 137.995 321.28 137.995C321.398 137.995 321.512 138.006 321.622 138.027C321.732 138.044 321.843 138.071 321.953 138.109L321.622 139.004C321.508 138.966 321.4 138.939 321.299 138.922C321.197 138.901 321.1 138.89 321.007 138.89C320.482 138.89 320.088 139.081 319.826 139.461C319.564 139.838 319.433 140.407 319.433 141.169V144H318.449ZM326.542 141.645H327.672V141.753C327.672 142.227 327.826 142.604 328.135 142.883C328.444 143.158 328.865 143.295 329.398 143.295C330.012 143.295 330.486 143.141 330.82 142.832C331.155 142.519 331.322 142.077 331.322 141.505C331.322 140.904 331.15 140.452 330.808 140.147C330.469 139.838 329.965 139.684 329.297 139.684C329.212 139.684 329.147 139.686 329.1 139.69C329.058 139.69 329.015 139.692 328.973 139.696V138.789C329.007 138.789 329.056 138.791 329.119 138.795C329.187 138.799 329.238 138.801 329.271 138.801C329.91 138.801 330.393 138.662 330.719 138.382C331.045 138.103 331.207 137.688 331.207 137.138C331.207 136.652 331.059 136.266 330.763 135.983C330.467 135.695 330.065 135.551 329.557 135.551C329.015 135.551 328.592 135.685 328.288 135.951C327.987 136.214 327.824 136.597 327.799 137.1L326.707 137.094C326.749 136.294 327.016 135.68 327.507 135.253C328.002 134.826 328.694 134.612 329.582 134.612C330.437 134.612 331.114 134.834 331.614 135.278C332.113 135.723 332.363 136.324 332.363 137.081C332.363 137.631 332.217 138.097 331.925 138.478C331.637 138.858 331.233 139.117 330.712 139.252C331.267 139.345 331.7 139.595 332.014 140.001C332.327 140.403 332.483 140.917 332.483 141.543C332.483 142.386 332.206 143.048 331.652 143.53C331.102 144.008 330.338 144.248 329.36 144.248C328.501 144.248 327.816 144.028 327.304 143.587C326.796 143.147 326.542 142.557 326.542 141.816V141.645Z" fill="white"/>
<path d="M272.949 76.7827L271.47 80.2041H274.428L272.949 76.7827ZM272.949 74.3389L277.176 84H275.976L274.77 81.1499H271.14L269.934 84H268.734L272.949 74.3389ZM282.476 81.1118C282.476 80.4601 282.299 79.9354 281.943 79.5376C281.588 79.1398 281.12 78.9409 280.54 78.9409C279.944 78.9409 279.478 79.125 279.144 79.4932C278.81 79.8613 278.642 80.3755 278.642 81.0356C278.642 81.7381 278.81 82.2798 279.144 82.6606C279.482 83.0415 279.961 83.2319 280.579 83.2319C281.171 83.2319 281.634 83.0457 281.969 82.6733C282.307 82.2967 282.476 81.7762 282.476 81.1118ZM283.441 78.1919V83.8984C283.441 84.529 283.399 84.9775 283.314 85.2441C283.23 85.5107 283.09 85.7498 282.895 85.9614C282.625 86.2534 282.292 86.4714 281.899 86.6152C281.51 86.7591 281.061 86.8311 280.553 86.8311C279.673 86.8311 278.985 86.63 278.49 86.228C277.999 85.826 277.743 85.2568 277.722 84.5205H278.839V84.5967C278.839 85.0326 278.989 85.369 279.29 85.606C279.59 85.8429 280.016 85.9614 280.566 85.9614C280.964 85.9614 281.302 85.8958 281.581 85.7646C281.865 85.6377 282.081 85.4473 282.229 85.1934C282.318 85.0495 282.381 84.8823 282.419 84.6919C282.457 84.5015 282.476 84.2285 282.476 83.873V83.416V82.8955C282.252 83.3102 281.958 83.6297 281.594 83.854C281.23 84.0741 280.822 84.1841 280.369 84.1841C279.535 84.1841 278.863 83.9006 278.35 83.3335C277.843 82.7664 277.589 82.0132 277.589 81.0737C277.589 80.1258 277.836 79.3747 278.331 78.8203C278.827 78.2617 279.489 77.9824 280.318 77.9824C280.801 77.9824 281.224 78.0924 281.588 78.3125C281.952 78.5283 282.239 78.8478 282.451 79.271V78.1919H283.441ZM289.903 81.1118C289.903 80.4601 289.725 79.9354 289.37 79.5376C289.015 79.1398 288.547 78.9409 287.967 78.9409C287.371 78.9409 286.905 79.125 286.571 79.4932C286.236 79.8613 286.069 80.3755 286.069 81.0356C286.069 81.7381 286.236 82.2798 286.571 82.6606C286.909 83.0415 287.387 83.2319 288.005 83.2319C288.598 83.2319 289.061 83.0457 289.395 82.6733C289.734 82.2967 289.903 81.7762 289.903 81.1118ZM290.868 78.1919V83.8984C290.868 84.529 290.826 84.9775 290.741 85.2441C290.656 85.5107 290.517 85.7498 290.322 85.9614C290.051 86.2534 289.719 86.4714 289.326 86.6152C288.936 86.7591 288.488 86.8311 287.98 86.8311C287.1 86.8311 286.412 86.63 285.917 86.228C285.426 85.826 285.17 85.2568 285.149 84.5205H286.266V84.5967C286.266 85.0326 286.416 85.369 286.717 85.606C287.017 85.8429 287.442 85.9614 287.993 85.9614C288.39 85.9614 288.729 85.8958 289.008 85.7646C289.292 85.6377 289.508 85.4473 289.656 85.1934C289.745 85.0495 289.808 84.8823 289.846 84.6919C289.884 84.5015 289.903 84.2285 289.903 83.873V83.416V82.8955C289.679 83.3102 289.385 83.6297 289.021 83.854C288.657 84.0741 288.249 84.1841 287.796 84.1841C286.962 84.1841 286.289 83.9006 285.777 83.3335C285.269 82.7664 285.016 82.0132 285.016 81.0737C285.016 80.1258 285.263 79.3747 285.758 78.8203C286.253 78.2617 286.916 77.9824 287.745 77.9824C288.227 77.9824 288.651 78.0924 289.015 78.3125C289.378 78.5283 289.666 78.8478 289.878 79.271V78.1919H290.868ZM292.937 84V74.1611H293.953V84H292.937ZM296.619 81.1118C296.619 81.7254 296.824 82.2459 297.235 82.6733C297.645 83.0965 298.142 83.3081 298.726 83.3081C299.306 83.3081 299.799 83.0965 300.205 82.6733C300.612 82.2459 300.815 81.7254 300.815 81.1118C300.815 80.4982 300.612 79.9798 300.205 79.5566C299.799 79.1292 299.306 78.9155 298.726 78.9155C298.138 78.9155 297.639 79.1292 297.228 79.5566C296.822 79.9798 296.619 80.4982 296.619 81.1118ZM295.565 81.1118C295.565 80.6844 295.644 80.2824 295.8 79.9058C295.957 79.5249 296.185 79.1864 296.486 78.8901C296.786 78.5939 297.127 78.3696 297.508 78.2173C297.889 78.0607 298.295 77.9824 298.726 77.9824C299.15 77.9824 299.55 78.0607 299.926 78.2173C300.307 78.3739 300.652 78.6024 300.961 78.9028C301.261 79.1948 301.49 79.5312 301.646 79.9121C301.803 80.2887 301.881 80.6886 301.881 81.1118C301.881 81.535 301.803 81.9349 301.646 82.3115C301.49 82.6839 301.261 83.0161 300.961 83.3081C300.652 83.6128 300.305 83.8455 299.92 84.0063C299.539 84.1672 299.141 84.2476 298.726 84.2476C298.299 84.2476 297.893 84.1672 297.508 84.0063C297.127 83.8498 296.786 83.6234 296.486 83.3271C296.185 83.0225 295.957 82.6839 295.8 82.3115C295.644 81.9391 295.565 81.5392 295.565 81.1118ZM311.523 84V80.5786C311.523 79.9904 311.405 79.5545 311.168 79.271C310.931 78.9832 310.567 78.8394 310.076 78.8394C309.809 78.8394 309.562 78.8944 309.333 79.0044C309.109 79.1102 308.919 79.2625 308.762 79.4614C308.648 79.6138 308.565 79.7915 308.515 79.9946C308.464 80.1978 308.438 80.5321 308.438 80.9976V84H307.48V80.5786C307.48 79.9904 307.361 79.5545 307.124 79.271C306.887 78.9832 306.524 78.8394 306.033 78.8394C305.766 78.8394 305.516 78.8944 305.284 79.0044C305.055 79.1102 304.863 79.2625 304.706 79.4614C304.596 79.6095 304.516 79.7809 304.465 79.9756C304.418 80.1702 304.395 80.5109 304.395 80.9976V84H303.436V78.1919H304.408V79.0869C304.649 78.7145 304.937 78.4373 305.271 78.2554C305.605 78.0734 305.99 77.9824 306.426 77.9824C306.896 77.9824 307.296 78.084 307.626 78.2871C307.956 78.486 308.206 78.778 308.375 79.1631C308.625 78.7653 308.919 78.4691 309.257 78.2744C309.6 78.0798 309.996 77.9824 310.444 77.9824C311.092 77.9824 311.597 78.1644 311.961 78.5283C312.325 78.8923 312.507 79.3979 312.507 80.0454V84H311.523ZM318.588 80.439C318.554 79.9269 318.383 79.5334 318.074 79.2583C317.769 78.979 317.35 78.8394 316.817 78.8394C316.335 78.8394 315.933 78.9854 315.611 79.2773C315.29 79.5651 315.103 79.9523 315.053 80.439H318.588ZM319.655 81.2451H315.053V81.334C315.053 81.9561 315.23 82.4596 315.586 82.8447C315.941 83.2256 316.405 83.416 316.976 83.416C317.365 83.416 317.717 83.3123 318.03 83.105C318.343 82.8934 318.62 82.576 318.861 82.1528L319.617 82.6606C319.325 83.1854 318.952 83.5811 318.499 83.8477C318.047 84.1143 317.522 84.2476 316.925 84.2476C316.041 84.2476 315.326 83.9556 314.78 83.3716C314.234 82.7876 313.961 82.0216 313.961 81.0737C313.961 80.1639 314.232 79.4191 314.773 78.8394C315.315 78.2596 316.011 77.9697 316.862 77.9697C317.721 77.9697 318.4 78.2448 318.899 78.7949C319.403 79.3451 319.655 80.0962 319.655 81.0483V81.2451ZM315.884 77.2778L317.179 75.0688H318.455L316.646 77.2778H315.884ZM321.172 84V78.1919H322.054V79.3979C322.321 78.8944 322.604 78.5347 322.905 78.3188C323.205 78.103 323.571 77.9951 324.003 77.9951C324.121 77.9951 324.236 78.0057 324.346 78.0269C324.456 78.0438 324.566 78.0713 324.676 78.1094L324.346 79.0044C324.231 78.9663 324.123 78.9388 324.022 78.9219C323.92 78.9007 323.823 78.8901 323.73 78.8901C323.205 78.8901 322.812 79.0806 322.549 79.4614C322.287 79.8381 322.156 80.4072 322.156 81.1689V84H321.172ZM330.173 81.1499C330.173 80.494 329.993 79.9671 329.633 79.5693C329.278 79.1673 328.812 78.9663 328.237 78.9663C327.64 78.9663 327.175 79.1504 326.84 79.5186C326.506 79.8867 326.339 80.4009 326.339 81.061C326.339 81.7635 326.506 82.3052 326.84 82.686C327.179 83.0669 327.657 83.2573 328.275 83.2573C328.867 83.2573 329.331 83.0732 329.665 82.7051C330.003 82.3327 330.173 81.8143 330.173 81.1499ZM331.138 78.1919V84H330.173V82.9463C329.94 83.3695 329.642 83.6932 329.278 83.9175C328.918 84.1375 328.514 84.2476 328.065 84.2476C327.232 84.2476 326.559 83.9619 326.047 83.3906C325.539 82.8151 325.285 82.0555 325.285 81.1118C325.285 80.1554 325.533 79.3958 326.028 78.833C326.523 78.266 327.185 77.9824 328.015 77.9824C328.501 77.9824 328.922 78.0924 329.278 78.3125C329.637 78.5283 329.927 78.8521 330.147 79.2837V78.1919H331.138ZM333.283 79.0107H332.217V78.1919H333.283V75.8496H334.299V78.1919H335.365V79.0107H334.299V84H333.283V79.0107ZM343.954 84V82.0005H339.599L344.576 74.6118H345.045V81.0991H346.137V82.0005H345.045V84H343.954ZM343.954 81.0991V77.0176L341.237 81.0991H343.954Z" fill="white"/>
<path d="M90.124 53.8387C90.017 54.1191 90.1196 54.4186 90.353 54.5077L94.1577 55.9594C94.3912 56.0485 94.6672 55.8934 94.7742 55.613C94.8812 55.3326 94.7786 55.0331 94.5452 54.944L91.1632 53.6536L92.7129 49.5921C92.8199 49.3118 92.7173 49.0122 92.4839 48.9232C92.2504 48.8341 91.9744 48.9892 91.8674 49.2695L90.124 53.8387ZM134.878 28.527L90.3848 53.527L90.7087 54.473L135.202 29.473L134.878 28.527Z" fill="black"/>
<path d="M181.521 50.3536C181.716 50.5488 182.033 50.5488 182.228 50.3536L185.41 47.1716C185.605 46.9763 185.605 46.6597 185.41 46.4645C185.215 46.2692 184.898 46.2692 184.703 46.4645L181.875 49.2929L179.046 46.4645C178.851 46.2692 178.534 46.2692 178.339 46.4645C178.144 46.6597 178.144 46.9763 178.339 47.1716L181.521 50.3536ZM181.375 31V50H182.375V31H181.375Z" fill="black"/>
<path d="M259.344 50.5084C259.577 50.42 259.68 50.1207 259.574 49.8399L257.843 45.2643C257.736 44.9836 257.461 44.8276 257.227 44.916C256.994 45.0044 256.89 45.3037 256.997 45.5845L258.536 49.6517L255.152 50.9322C254.919 51.0206 254.815 51.3199 254.922 51.6006C255.028 51.8814 255.303 52.0374 255.537 51.949L259.344 50.5084ZM225.423 31.4727L258.988 50.4727L259.314 49.5273L225.749 30.5273L225.423 31.4727Z" fill="black"/>
<path d="M48.8227 111.354C49.018 111.549 49.3346 111.549 49.5298 111.354L52.7118 108.172C52.9071 107.976 52.9071 107.66 52.7118 107.464C52.5165 107.269 52.2 107.269 52.0047 107.464L49.1763 110.293L46.3478 107.464C46.1526 107.269 45.836 107.269 45.6407 107.464C45.4455 107.66 45.4455 107.976 45.6407 108.172L48.8227 111.354ZM48.6763 96L48.6763 111L49.6763 111L49.6763 96L48.6763 96Z" fill="black"/>
<path d="M182.301 113.354C182.496 113.549 182.813 113.549 183.008 113.354L186.19 110.172C186.386 109.976 186.386 109.66 186.19 109.464C185.995 109.269 185.678 109.269 185.483 109.464L182.655 112.293L179.826 109.464C179.631 109.269 179.315 109.269 179.119 109.464C178.924 109.66 178.924 109.976 179.119 110.172L182.301 113.354ZM182.155 98L182.155 113L183.155 113L183.155 98L182.155 98Z" fill="black"/>
<path d="M306.413 113.354C306.608 113.549 306.924 113.549 307.12 113.354L310.302 110.172C310.497 109.976 310.497 109.66 310.302 109.464C310.106 109.269 309.79 109.269 309.595 109.464L306.766 112.293L303.938 109.464C303.742 109.269 303.426 109.269 303.231 109.464C303.035 109.66 303.035 109.976 303.231 110.172L306.413 113.354ZM306.266 98L306.266 113L307.266 113L307.266 98L306.266 98Z" fill="black"/>
</svg>
