<svg width="27" height="27" viewBox="0 0 27 27" fill="none" xmlns="http://www.w3.org/2000/svg">
<ellipse cx="13.4999" cy="13.0835" rx="6.46552" ry="6.25" fill="white"/>
<line x1="14" y1="1" x2="14" y2="4" stroke="white" stroke-width="2" stroke-linecap="round"/>
<line x1="14" y1="23" x2="14" y2="26" stroke="white" stroke-width="2" stroke-linecap="round"/>
<line x1="1" y1="-1" x2="4" y2="-1" transform="matrix(0.718988 -0.695022 0.718988 0.695022 4.44824 23.1133)" stroke="white" stroke-width="2" stroke-linecap="round"/>
<line x1="1" y1="-1" x2="4" y2="-1" transform="matrix(0.718988 -0.695022 0.718988 0.695022 20.8276 8.11328)" stroke="white" stroke-width="2" stroke-linecap="round"/>
<line x1="1" y1="-1" x2="4" y2="-1" transform="matrix(-0.718988 -0.695022 0.718988 -0.695022 23.8755 22.2798)" stroke="white" stroke-width="2" stroke-linecap="round"/>
<line x1="1" y1="-1" x2="4" y2="-1" transform="matrix(-0.718988 -0.695022 0.718988 -0.695022 8.35815 6.44629)" stroke="white" stroke-width="2" stroke-linecap="round"/>
<line x1="23" y1="13" x2="26" y2="13" stroke="white" stroke-width="2" stroke-linecap="round"/>
<line x1="1" y1="13" x2="4" y2="13" stroke="white" stroke-width="2" stroke-linecap="round"/>
</svg>
