<svg width="31" height="30" viewBox="0 0 31 30" fill="none" xmlns="http://www.w3.org/2000/svg">
<path d="M22.0166 16.31C22.0166 20.2146 18.8027 23.4037 14.8084 23.4037C10.8141 23.4037 7.6001 20.2146 7.6001 16.31C7.6001 12.4055 10.8141 9.21631 14.8084 9.21631C18.8027 9.21631 22.0166 12.4055 22.0166 16.31Z" stroke="white" stroke-width="2"/>
<line x1="14.4923" y1="6.00244" x2="14.4923" y2="4.09048" stroke="white" stroke-width="2" stroke-linecap="round"/>
<line x1="14.4923" y1="28.395" x2="14.4923" y2="26.4831" stroke="white" stroke-width="2" stroke-linecap="round"/>
<line x1="25.6577" y1="16.2544" x2="27.625" y2="16.2544" stroke="white" stroke-width="2" stroke-linecap="round"/>
<line x1="1.99084" y1="16.2544" x2="3.95817" y2="16.2544" stroke="white" stroke-width="2" stroke-linecap="round"/>
<line x1="1" y1="-1" x2="2.93969" y2="-1" transform="matrix(0.711451 0.702736 -0.712665 0.701504 4.9585 7.40674)" stroke="white" stroke-width="2" stroke-linecap="round"/>
<line x1="1" y1="-1" x2="2.93969" y2="-1" transform="matrix(0.711451 0.702736 -0.712665 0.701504 21.2379 23.5947)" stroke="white" stroke-width="2" stroke-linecap="round"/>
<line x1="1" y1="-1" x2="2.93974" y2="-1" transform="matrix(0.712058 -0.70212 0.712058 0.70212 6.32617 26.9004)" stroke="white" stroke-width="2" stroke-linecap="round"/>
<line x1="1" y1="-1" x2="2.93974" y2="-1" transform="matrix(0.712058 -0.70212 0.712058 0.70212 22.6057 10.4424)" stroke="white" stroke-width="2" stroke-linecap="round"/>
<line x1="23.3903" y1="1" x2="29.4151" y2="1" stroke="white" stroke-width="2" stroke-linecap="round"/>
</svg>
