<svg width="28" height="28" viewBox="0 0 28 28" fill="none" xmlns="http://www.w3.org/2000/svg">
<path d="M27.1195 9.11094C27.3 9.58125 27.1469 10.1117 26.775 10.4563L24.407 12.6109C24.4672 13.0648 24.5 13.5297 24.5 14C24.5 14.4703 24.4672 14.9352 24.407 15.3891L26.775 17.5437C27.1469 17.8883 27.3 18.4187 27.1195 18.8891C26.8789 19.5398 26.5891 20.1688 26.261 20.7648L26.0039 21.2078C25.643 21.8094 25.2383 22.3781 24.7953 22.9195C24.4672 23.3078 23.9367 23.4445 23.4555 23.2914L20.4094 22.318C19.6766 22.8813 18.818 23.3516 18.0031 23.7125L17.3195 26.8352C17.2102 27.3273 16.8274 27.6773 16.3242 27.8086C15.5695 27.9344 14.793 28 13.9508 28C13.207 28 12.4305 27.9344 11.6758 27.8086C11.1727 27.6773 10.7899 27.3273 10.6805 26.8352L9.99688 23.7125C9.13282 23.3516 8.32344 22.8813 7.59063 22.318L4.54672 23.2914C4.06329 23.4445 3.53008 23.3078 3.20633 22.9195C2.76282 22.3781 2.35813 21.8094 1.99719 21.2078L1.74126 20.7648C1.4093 20.1688 1.12055 19.5398 0.878286 18.8891C0.701099 18.4187 0.850395 17.8883 1.22555 17.5437L3.59133 15.3891C3.53118 14.9352 3.50001 14.4703 3.50001 14C3.50001 13.5297 3.53118 13.0648 3.59133 12.6109L1.22555 10.4563C0.850395 10.1117 0.701099 9.58672 0.878286 9.11094C1.12055 8.46016 1.40985 7.83125 1.74126 7.23516L1.99665 6.79219C2.35813 6.19062 2.76282 5.62187 3.20633 5.0832C3.53008 4.69219 4.06329 4.55656 4.54672 4.71078L7.59063 5.68203C8.32344 5.11656 9.13282 4.64625 9.99688 4.28914L10.6805 1.16648C10.7899 0.669922 11.1727 0.275625 11.6758 0.191953C12.4305 0.0656797 13.207 0 14 0C14.793 0 15.5695 0.0656797 16.3242 0.191953C16.8274 0.275625 17.2102 0.669922 17.3195 1.16648L18.0031 4.28914C18.818 4.64625 19.6766 5.11656 20.4094 5.68203L23.4555 4.71078C23.9367 4.55656 24.4672 4.69219 24.7953 5.0832C25.2383 5.62187 25.643 6.19062 26.0039 6.79219L26.261 7.23516C26.5891 7.83125 26.8789 8.46016 27.1195 9.11094ZM14 18.375C16.4172 18.375 18.375 16.4172 18.375 13.9508C18.375 11.5828 16.4172 9.57578 14 9.57578C11.5828 9.57578 9.62501 11.5828 9.62501 13.9508C9.62501 16.4172 11.5828 18.375 14 18.375Z" fill="white"/>
</svg>
