<svg width="34" height="32" viewBox="0 0 34 32" fill="none" xmlns="http://www.w3.org/2000/svg">
<path d="M30.9936 16.1851C30.9936 23.7526 24.6454 29.9157 16.8507 29.9157C13.7644 29.9157 10.8379 28.9602 8.37375 27.1646C7.48058 26.5152 7.29992 25.2844 7.97005 24.4167C8.64025 23.5526 9.90863 23.376 10.7999 24.0258C12.5584 25.3081 14.653 25.9845 16.8569 25.9845C22.4219 25.9848 26.9509 21.5878 26.9509 16.1851C26.9509 10.7825 22.4238 6.3855 16.857 6.3855C13.6797 6.38673 10.6919 7.86342 8.79696 10.298H12.8017C13.9178 10.298 14.823 11.1755 14.823 12.2604C14.823 13.3452 13.9197 14.2228 12.8017 14.2228H3.70577C2.58962 14.2228 1.68445 13.3452 1.68445 12.2604V3.42966C1.68445 2.34484 2.58962 1.46729 3.70577 1.46729C4.82191 1.46729 5.72709 2.34484 5.72709 3.42966V7.73647C8.38638 4.44642 12.429 2.45522 16.8507 2.45522C24.6454 2.45522 30.9936 8.61771 30.9936 16.1851Z" fill="white"/>
</svg>
